<svg width="49" height="49" viewBox="0 0 49 49" fill="none" xmlns="http://www.w3.org/2000/svg">
<path d="M42.914 0.185608C46.4408 0.185608 48.2042 1.95462 48.2042 5.49265V42.8955C48.2042 46.4222 46.4408 48.1856 42.914 48.1856H5.49431C1.96755 48.1856 0.204163 46.4222 0.204163 42.8955V5.49265C0.204163 1.95462 1.96755 0.185608 5.49431 0.185608H42.914Z" fill="#1C3943"/>
<path d="M38.2154 45.8194C37.483 43.3744 36.514 41.0983 35.3084 38.9913C32.2436 33.6166 28.5422 30.9293 24.2042 30.9293C19.8661 30.9293 16.1591 33.6166 13.083 38.9913C11.8887 41.0983 10.9253 43.3744 10.1929 45.8194H5.49431C3.54501 45.8194 2.57036 44.8448 2.57036 42.8955V5.49266C2.57036 3.5321 3.54501 2.55182 5.49431 2.55182H42.914C44.8633 2.55182 45.838 3.5321 45.838 5.49266V42.8955C45.838 44.8448 44.8633 45.8194 42.914 45.8194H38.2154Z" fill="#365A66"/>
<path d="M38.2154 45.8195H10.1929C10.9253 43.3744 11.8887 41.0983 13.083 38.9913C16.1591 33.6166 19.8661 30.9293 24.2042 30.9293C28.5422 30.9293 32.2436 33.6166 35.3084 38.9913C36.514 41.0983 37.483 43.3744 38.2154 45.8195Z" fill="#E5F3F7"/>
<path d="M40.2605 19.3518L40.3112 19.5377C41.0549 22.3096 41.1394 24.8166 40.5647 27.0589C39.9788 29.3124 38.9027 30.6476 37.3366 31.0645C35.7704 31.4814 34.1647 30.8673 32.5197 29.2222C30.8858 27.5659 29.6971 25.3518 28.9535 22.58L28.9028 22.3941C28.5309 20.8729 28.745 19.4307 29.545 18.0673C30.3563 16.6476 31.545 15.7293 33.1112 15.3124C34.6774 14.8955 36.1704 15.0927 37.5901 15.9039C38.9422 16.7039 39.8323 17.8532 40.2605 19.3518ZM19.5394 22.411L19.4887 22.5969C18.745 25.3687 17.5619 27.5772 15.9394 29.2222C14.3056 30.8786 12.6999 31.4983 11.1225 31.0814C9.55628 30.6532 8.48022 29.318 7.89431 27.0758C7.29713 24.8222 7.37037 22.3096 8.11404 19.5377L8.16473 19.3518C8.60416 17.8532 9.50557 16.7096 10.869 15.9208C12.2887 15.0983 13.7816 14.9011 15.3478 15.3293C16.9253 15.7462 18.114 16.6589 18.914 18.0673C19.714 19.4419 19.9225 20.8898 19.5394 22.411Z" fill="#F2F9FB"/>
<path d="M17.7309 22.0898V22.1574V22.3264C17.6633 22.9123 17.3591 23.4138 16.8183 23.8307C16.2211 24.2926 15.5056 24.5236 14.6718 24.5236C13.8267 24.5236 13.1056 24.2926 12.5084 23.8307C11.9675 23.4138 11.6746 22.9123 11.6295 22.3264L11.6126 22.1574V22.0898V22.056C11.6239 20.918 11.9225 19.9433 12.5084 19.1321C13.1056 18.3208 13.8267 17.9152 14.6718 17.9152C15.5056 17.9152 16.2211 18.3208 16.8183 19.1321C17.4154 19.9433 17.7196 20.918 17.7309 22.056V22.0898ZM36.9647 22.0898V22.1574V22.3264C36.9084 22.9123 36.6042 23.4138 36.052 23.8307C35.4549 24.2926 34.7394 24.5236 33.9056 24.5236C33.0605 24.5236 32.3394 24.2926 31.7422 23.8307C31.2126 23.4138 30.9197 22.9123 30.8633 22.3264L30.8464 22.1574V22.0898V22.056C30.8577 20.918 31.1563 19.9433 31.7422 19.1321C32.3394 18.3208 33.0605 17.9152 33.9056 17.9152C34.7394 17.9152 35.4549 18.3208 36.052 19.1321C36.6492 19.9433 36.9535 20.918 36.9647 22.056V22.0898Z" fill="#333333"/>
<path d="M29.6126 29.78C29.545 30.58 29.0211 31.2673 28.0408 31.842C26.9929 32.4617 25.7197 32.7715 24.2211 32.7715C22.7225 32.7715 21.4436 32.4617 20.3845 31.842C19.4154 31.2673 18.8915 30.58 18.8126 29.78L18.7957 29.4251C18.7957 27.9265 19.3253 26.6476 20.3845 25.5884C21.4436 24.5405 22.7225 24.0166 24.2211 24.0166C25.7197 24.0166 26.9929 24.5405 28.0408 25.5884C29.0999 26.6476 29.6295 27.9265 29.6295 29.4251L29.6126 29.78Z" fill="#FF9900"/>
</svg>
